<mxfile host="app.diagrams.net" modified="2021-05-31T08:48:33.895Z" agent="5.0 (X11)" etag="GDbng8v4CazWXJZYUrE6" version="14.7.2" type="github">
  <diagram id="2pmaMjAiOna9i6XkDK2j" name="Page-1">
    <mxGraphModel dx="1454" dy="757" grid="1" gridSize="10" guides="1" tooltips="1" connect="1" arrows="1" fold="1" page="1" pageScale="1" pageWidth="700" pageHeight="400" math="0" shadow="0">
      <root>
        <mxCell id="0" />
        <mxCell id="1" parent="0" />
        <mxCell id="9KCWlzxx3sUin7gzHu5k-4" style="edgeStyle=orthogonalEdgeStyle;rounded=0;orthogonalLoop=1;jettySize=auto;html=1;entryX=0;entryY=0.5;entryDx=0;entryDy=0;" edge="1" parent="1" source="9KCWlzxx3sUin7gzHu5k-1" target="9KCWlzxx3sUin7gzHu5k-2">
          <mxGeometry relative="1" as="geometry" />
        </mxCell>
        <mxCell id="9KCWlzxx3sUin7gzHu5k-1" value="src/Root.js" style="rounded=0;whiteSpace=wrap;html=1;" vertex="1" parent="1">
          <mxGeometry x="80" y="160" width="120" height="90" as="geometry" />
        </mxCell>
        <mxCell id="9KCWlzxx3sUin7gzHu5k-2" value="commentBox.test.js" style="rounded=0;whiteSpace=wrap;html=1;" vertex="1" parent="1">
          <mxGeometry x="280" y="160" width="120" height="90" as="geometry" />
        </mxCell>
        <mxCell id="9KCWlzxx3sUin7gzHu5k-5" style="edgeStyle=orthogonalEdgeStyle;rounded=0;orthogonalLoop=1;jettySize=auto;html=1;entryX=1;entryY=0.5;entryDx=0;entryDy=0;" edge="1" parent="1" source="9KCWlzxx3sUin7gzHu5k-3" target="9KCWlzxx3sUin7gzHu5k-2">
          <mxGeometry relative="1" as="geometry" />
        </mxCell>
        <mxCell id="9KCWlzxx3sUin7gzHu5k-3" value="commentBox.js" style="rounded=0;whiteSpace=wrap;html=1;" vertex="1" parent="1">
          <mxGeometry x="480" y="160" width="120" height="90" as="geometry" />
        </mxCell>
      </root>
    </mxGraphModel>
  </diagram>
</mxfile>
